<?xml version="1.0" encoding="UTF-8" standalone="no"?>
<!DOCTYPE svg PUBLIC "-//W3C//DTD SVG 1.1//EN" "http://www.w3.org/Graphics/SVG/1.1/DTD/svg11.dtd">
<svg version="1.1" xmlns="http://www.w3.org/2000/svg" xmlns:xlink="http://www.w3.org/1999/xlink" preserveAspectRatio="xMidYMid meet" viewBox="0 0 640 640" width="640" height="640"><defs><path d="M500.55 64C506.88 64 512 69.13 512 75.45C512 175.56 512 464.44 512 564.55C512 570.87 506.88 576 500.55 576C426.04 576 213.97 576 139.46 576C133.13 576 128 570.87 128 564.55C128 464.44 128 175.56 128 75.45C128 69.13 133.13 64 139.46 64C213.97 64 426.04 64 500.55 64Z" id="exYAi3bUT"></path><path d="M135.5 195L135.5 195L134.5 195L135.5 195Z" id="c5qEsakwAF"></path><path d="M160 140L260 140L260 170L160 170L160 140Z" id="b9gg4zsl3"></path><path d="M160 270L460 270L460 290L160 290L160 270Z" id="d1TKtmwhYI"></path><path d="M160 190L460 190L460 210L160 210L160 190Z" id="aJGMyxLHQ"></path><path d="M160 230L460 230L460 250L160 250L160 230Z" id="a17NTfJAQ3"></path><path d="M160 320L340 320L340 360L160 360L160 320Z" id="azU1cWDK6"></path><path d="M160 400L340 400L340 440L160 440L160 400Z" id="d41A6QWCEZ"></path><path d="M160 480L460 480L460 540L160 540L160 480Z" id="a3jiQbnck"></path><path d="M545.87 71.89L387.88 331.81L422.33 347.26L308.5 535.1L525.54 301.68L476.33 279.6L600 96.18L545.87 71.89Z" id="cDE4x20WO"></path><path d="M160 100L460 100L460 120L160 120L160 100Z" id="flDANNCF3"></path></defs><g><g><g><g><use xlink:href="#exYAi3bUT" opacity="1" fill-opacity="0" stroke="#000000" stroke-width="20" stroke-opacity="1"></use></g></g><g><use xlink:href="#c5qEsakwAF" opacity="1" fill="#632023" fill-opacity="1"></use></g><g><use xlink:href="#b9gg4zsl3" opacity="1" fill="#000000" fill-opacity="1"></use></g><g><use xlink:href="#d1TKtmwhYI" opacity="1" fill="#000000" fill-opacity="1"></use></g><g><use xlink:href="#aJGMyxLHQ" opacity="1" fill="#000000" fill-opacity="1"></use></g><g><use xlink:href="#a17NTfJAQ3" opacity="1" fill="#000000" fill-opacity="1"></use></g><g><g><use xlink:href="#azU1cWDK6" opacity="1" fill-opacity="0" stroke="#000000" stroke-width="10" stroke-opacity="1"></use></g></g><g><g><use xlink:href="#d41A6QWCEZ" opacity="1" fill-opacity="0" stroke="#000000" stroke-width="10" stroke-opacity="1"></use></g></g><g><g><use xlink:href="#a3jiQbnck" opacity="1" fill-opacity="0" stroke="#000000" stroke-width="10" stroke-opacity="1"></use></g></g><g><use xlink:href="#cDE4x20WO" opacity="1" fill="#fff110" fill-opacity="1"></use><g><use xlink:href="#cDE4x20WO" opacity="1" fill-opacity="0" stroke="#000000" stroke-width="20" stroke-opacity="1"></use></g></g><g><use xlink:href="#flDANNCF3" opacity="1" fill="#000000" fill-opacity="1"></use></g></g></g></svg>